<svg width="215" height="59" viewBox="0 0 215 59" version="1.1" xmlns="http://www.w3.org/2000/svg" xmlns:xlink="http://www.w3.org/1999/xlink">
<title>Group 2</title>
<desc>Created using Figma</desc>
<g id="Canvas" transform="translate(-6680 377)">
<g id="Group 2">
<g id="Group">
<g id="Group">
<g id="iOS 7 App Icon Radius27@120" filter="url(#filter0_d)">
<g id="Vector">
<use xlink:href="#path0_fill" transform="translate(6684 -377)" fill="#03A9F4"/>
</g>
</g>
</g>
<g id="book" filter="url(#filter1_d)">
<g id="Vector">
<use xlink:href="#path1_fill" transform="matrix(0.986334 -0.167448 0.180135 0.983154 6693.94 -365.472)" fill="#FFFFFF"/>
</g>
</g>
</g>
<g id="NoTakerz">
<use xlink:href="#path2_fill" transform="translate(6746 -374)" fill="#3D3D3D"/>
</g>
</g>
</g>
<defs>
<filter id="filter0_d" filterUnits="userSpaceOnUse" x="6680" y="-377" width="61" height="60" color-interpolation-filters="sRGB">
<feFlood flood-opacity="0" result="BackgroundImageFix"/>
<feColorMatrix in="SourceAlpha" type="matrix" values="0 0 0 0 0 0 0 0 0 0 0 0 0 0 0 0 0 0 255 0"/>
<feOffset dx="0" dy="4"/>
<feGaussianBlur stdDeviation="2"/>
<feColorMatrix type="matrix" values="0 0 0 0 0 0 0 0 0 0 0 0 0 0 0 0 0 0 0.25 0"/>
<feBlend mode="normal" in2="BackgroundImageFix" result="effect1_dropShadow"/>
<feBlend mode="normal" in="SourceGraphic" in2="effect1_dropShadow" result="shape"/>
</filter>
<filter id="filter1_d" filterUnits="userSpaceOnUse" x="6690" y="-370" width="41" height="45" color-interpolation-filters="sRGB">
<feFlood flood-opacity="0" result="BackgroundImageFix"/>
<feColorMatrix in="SourceAlpha" type="matrix" values="0 0 0 0 0 0 0 0 0 0 0 0 0 0 0 0 0 0 255 0"/>
<feOffset dx="0" dy="4"/>
<feGaussianBlur stdDeviation="2"/>
<feColorMatrix type="matrix" values="0 0 0 0 0 0 0 0 0 0 0 0 0 0 0 0 0 0 0.25 0"/>
<feBlend mode="normal" in2="BackgroundImageFix" result="effect1_dropShadow"/>
<feBlend mode="normal" in="SourceGraphic" in2="effect1_dropShadow" result="shape"/>
</filter>
<path id="path0_fill" d="M 18.2293 2.88347e-21L 34.7707 2.88347e-21C 40.0197 2.88347e-21 42.6442 -1.12587e-07 45.4694 0.859608C 48.5541 1.93996 50.984 4.27815 52.1067 7.24639C 53 9.96497 53 12.4905 53 17.5414L 53 33.4586C 53 38.5095 53 41.035 52.1067 43.7536C 50.984 46.7219 48.5541 49.06 45.4694 50.1404C 42.6442 51 40.0197 51 34.7707 51L 18.2293 51C 12.9803 51 10.3558 51 7.53056 50.1404C 4.44592 49.06 2.01604 46.7219 0.893319 43.7536C 1.12823e-07 41.035 0 38.5095 0 33.4586L 0 17.5414C 0 12.4905 1.12823e-07 9.96497 0.893319 7.24639C 2.01604 4.27815 4.44593 1.93996 7.53056 0.859608C 10.3558 -1.12587e-07 12.9803 2.88347e-21 18.2293 2.88347e-21Z"/>
<path id="path1_fill" fill-rule="evenodd" d="M 24.1422 33.2944C 25.0569 33.2944 25.9341 32.9436 26.5809 32.3192C 27.2277 31.6948 27.591 30.848 27.591 29.9649L 27.591 3.32944C 27.591 1.4816 26.039 0 24.1422 0L 13.7955 0L 3.44888 0C 2.53418 7.39284e-16 1.65694 0.350779 1.01015 0.97517C 0.363363 1.59956 3.06322e-15 2.44642 0 3.32944L 0 29.9649C 1.53161e-15 30.848 0.363363 31.6948 1.01015 32.3192C 1.65694 32.9436 2.53418 33.2944 3.44888 33.2944L 24.1422 33.2944ZM 7.00644 19.0064L 5.48488 24.6231L 11.3087 23.1203L 11.1002 21.3068L 9.09237 21.1641L 8.93607 19.2163L 7.00644 19.0064ZM 7.51934 18.2256L 14.5605 11.4167L 19.1756 15.8664L 12.1345 22.6753L 11.8826 20.526L 9.9008 20.3833L 9.7445 18.4607L 7.51934 18.2256ZM 17.9506 8.67125C 17.6116 8.67125 17.2813 8.79719 17.0205 9.04066L 15.1777 10.8206L 19.7841 15.2787L 21.627 13.5156C 22.1486 13.0034 22.1486 12.2059 21.6271 11.7189L 18.8719 9.04066C 18.6112 8.79719 18.2809 8.67125 17.9506 8.67125Z"/>
<path id="path2_fill" d="M 28.7305 10.0781L 22.207 40L 16.6797 40L 12.0508 20.1562L 7.48047 40L 3.69141 40L 9.70703 12.5977C 7.85807 13.2487 6.47135 14.2578 5.54688 15.625C 4.6224 16.9922 4.16016 18.6523 4.16016 20.6055C 4.16016 21.4648 4.2513 22.2526 4.43359 22.9688C 4.62891 23.6719 4.89583 24.2448 5.23438 24.6875C 3.52865 24.6875 2.26562 24.3424 1.44531 23.6523C 0.638021 22.9492 0.234375 21.849 0.234375 20.3516C 0.234375 19.401 0.377604 18.4831 0.664062 17.5977C 0.963542 16.7122 1.3737 15.8789 1.89453 15.0977C 2.42839 14.3164 3.06641 13.6068 3.80859 12.9688C 4.55078 12.3177 5.37109 11.7643 6.26953 11.3086C 7.16797 10.8398 8.13151 10.4818 9.16016 10.2344C 10.1888 9.97396 11.263 9.84375 12.3828 9.84375C 13.0078 9.84375 13.5482 9.88932 14.0039 9.98047C 14.4727 10.0586 14.987 10.1953 15.5469 10.3906L 20.3711 31.7969L 24.8438 10.0781L 28.7305 10.0781ZM 46.1914 22.2852C 45.9701 22.7148 45.7292 23.1836 45.4688 23.6914C 45.2214 24.1862 44.9284 24.681 44.5898 25.1758C 44.2643 25.6576 43.8932 26.1198 43.4766 26.5625C 43.0729 26.9922 42.6042 27.3503 42.0703 27.6367C 41.9401 29.5508 41.6081 31.2826 41.0742 32.832C 40.5404 34.3815 39.8503 35.6966 39.0039 36.7773C 38.1706 37.8581 37.2005 38.6914 36.0938 39.2773C 35 39.8633 33.8216 40.1562 32.5586 40.1562C 31.6341 40.1562 30.7747 40.0456 29.9805 39.8242C 29.1992 39.5898 28.5221 39.2253 27.9492 38.7305C 27.3893 38.2227 26.9531 37.5716 26.6406 36.7773C 26.3151 35.9701 26.1523 34.9935 26.1523 33.8477C 26.1523 33.0664 26.2305 32.181 26.3867 31.1914C 26.543 30.1888 26.7904 29.1602 27.1289 28.1055C 27.4805 27.0508 27.9297 26.0221 28.4766 25.0195C 29.0365 24.0039 29.7135 23.099 30.5078 22.3047C 31.3151 21.5104 32.2526 20.8724 33.3203 20.3906C 34.388 19.8958 35.612 19.6484 36.9922 19.6484C 40.1432 19.6484 41.8359 21.4453 42.0703 25.0391C 42.4089 24.9609 42.7214 24.8112 43.0078 24.5898C 43.3073 24.3685 43.5742 24.1211 43.8086 23.8477C 44.056 23.5742 44.2708 23.2943 44.4531 23.0078C 44.6484 22.7214 44.8047 22.4805 44.9219 22.2852L 46.1914 22.2852ZM 38.6719 28.2422C 38.0339 28.0078 37.7148 27.4089 37.7148 26.4453C 37.7148 25.4167 38.0924 24.7201 38.8477 24.3555C 38.7826 23.4961 38.6328 22.9036 38.3984 22.5781C 38.1771 22.2396 37.819 22.0703 37.3242 22.0703C 36.8555 22.0703 36.3997 22.2591 35.957 22.6367C 35.5143 23.0013 35.0977 23.4896 34.707 24.1016C 34.3164 24.7135 33.9583 25.4167 33.6328 26.2109C 33.3203 26.9922 33.0469 27.7995 32.8125 28.6328C 32.5911 29.4661 32.4154 30.293 32.2852 31.1133C 32.168 31.9206 32.1094 32.6562 32.1094 33.3203C 32.1094 33.9844 32.1419 34.5247 32.207 34.9414C 32.2852 35.3581 32.4023 35.6901 32.5586 35.9375C 32.7279 36.1719 32.9427 36.3346 33.2031 36.4258C 33.4635 36.5169 33.7826 36.5625 34.1602 36.5625C 34.6419 36.5625 35.1172 36.3477 35.5859 35.918C 36.0677 35.4883 36.5104 34.9023 36.9141 34.1602C 37.3177 33.418 37.6693 32.5391 37.9688 31.5234C 38.2812 30.5078 38.5156 29.4141 38.6719 28.2422ZM 52.5 40L 58.1641 13.5156L 57.6953 13.5156C 56.6406 13.5156 55.651 13.6393 54.7266 13.8867C 53.8151 14.1211 53.0208 14.5443 52.3438 15.1562C 51.6667 15.7552 51.1328 16.5755 50.7422 17.6172C 50.3646 18.6589 50.1758 19.987 50.1758 21.6016C 50.1758 22.1094 50.2018 22.526 50.2539 22.8516C 50.319 23.1641 50.3841 23.418 50.4492 23.6133C 50.5143 23.7956 50.5729 23.9388 50.625 24.043C 50.6901 24.1471 50.7227 24.2383 50.7227 24.3164C 50.0326 24.3164 49.4206 24.2513 48.8867 24.1211C 48.3529 23.9779 47.9036 23.7565 47.5391 23.457C 47.1875 23.1576 46.9141 22.7604 46.7188 22.2656C 46.5365 21.7708 46.4453 21.1654 46.4453 20.4492C 46.4453 19.1211 46.6927 17.832 47.1875 16.582C 47.6823 15.319 48.4701 14.2057 49.5508 13.2422C 50.6445 12.2786 52.0573 11.5039 53.7891 10.918C 55.5208 10.332 57.6237 10.0391 60.0977 10.0391C 60.9049 10.0391 61.6211 10.0651 62.2461 10.1172C 62.8841 10.1562 63.4701 10.2083 64.0039 10.2734C 64.5508 10.3385 65.0651 10.4167 65.5469 10.5078C 66.0286 10.5859 66.5104 10.6576 66.9922 10.7227C 67.487 10.7878 68.0013 10.8464 68.5352 10.8984C 69.082 10.9375 69.681 10.957 70.332 10.957C 71.2695 10.957 72.1419 10.8724 72.9492 10.7031C 73.7565 10.5339 74.4336 10.3385 74.9805 10.1172C 74.9154 11.875 74.4596 13.1641 73.6133 13.9844C 72.7799 14.7917 71.569 15.1953 69.9805 15.1953C 68.9909 15.1953 67.9818 15.1042 66.9531 14.9219C 65.9375 14.7396 64.8763 14.5378 63.7695 14.3164L 58.2422 40L 52.5 40ZM 88.1836 32.832C 87.806 33.9128 87.3958 34.8503 86.9531 35.6445C 86.5104 36.4388 86.0482 37.1094 85.5664 37.6562C 85.0977 38.2031 84.6159 38.6458 84.1211 38.9844C 83.6263 39.3229 83.1445 39.5833 82.6758 39.7656C 82.207 39.9479 81.7578 40.0716 81.3281 40.1367C 80.8984 40.2018 80.5078 40.2344 80.1562 40.2344C 79.0234 40.2344 78.1185 39.9284 77.4414 39.3164C 76.7773 38.6914 76.3737 37.7734 76.2305 36.5625C 75.9049 37.0182 75.5469 37.4674 75.1562 37.9102C 74.7656 38.3398 74.3294 38.7305 73.8477 39.082C 73.3659 39.4206 72.8255 39.7005 72.2266 39.9219C 71.6406 40.1302 70.9896 40.2344 70.2734 40.2344C 69.5833 40.2344 68.9193 40.1237 68.2812 39.9023C 67.6432 39.681 67.0768 39.3164 66.582 38.8086C 66.0872 38.3008 65.6901 37.6367 65.3906 36.8164C 65.0911 35.9961 64.9414 34.9935 64.9414 33.8086C 64.9414 32.8971 65.0326 31.9206 65.2148 30.8789C 65.3971 29.8372 65.6771 28.7956 66.0547 27.7539C 66.4323 26.7122 66.901 25.7161 67.4609 24.7656C 68.0339 23.8021 68.6979 22.9557 69.4531 22.2266C 70.2214 21.4844 71.0872 20.8984 72.0508 20.4688C 73.0143 20.026 74.0755 19.8047 75.2344 19.8047C 76.3672 19.8047 77.1875 20 77.6953 20.3906C 78.2161 20.7812 78.4766 21.263 78.4766 21.8359L 78.4766 22.1289L 78.9062 20L 84.668 20L 81.7969 33.5938C 81.7318 33.8151 81.6862 34.0365 81.6602 34.2578C 81.6341 34.4661 81.6211 34.6745 81.6211 34.8828C 81.6211 36.0286 82.168 36.6016 83.2617 36.6016C 83.6523 36.6016 84.0104 36.5039 84.3359 36.3086C 84.6745 36.1003 84.9805 35.8268 85.2539 35.4883C 85.5273 35.1497 85.7682 34.7526 85.9766 34.2969C 86.1849 33.8281 86.3607 33.3398 86.5039 32.832L 88.1836 32.832ZM 78.1055 23.8086C 78.1055 23.6914 78.0794 23.5482 78.0273 23.3789C 77.9753 23.1966 77.8841 23.0273 77.7539 22.8711C 77.6367 22.7018 77.474 22.5651 77.2656 22.4609C 77.0573 22.3438 76.7904 22.2852 76.4648 22.2852C 75.9049 22.2852 75.3711 22.4674 74.8633 22.832C 74.3685 23.1966 73.9128 23.6849 73.4961 24.2969C 73.0794 24.8958 72.7083 25.5794 72.3828 26.3477C 72.0573 27.1159 71.7773 27.9102 71.543 28.7305C 71.3216 29.5378 71.1523 30.3385 71.0352 31.1328C 70.918 31.9141 70.8594 32.6172 70.8594 33.2422C 70.8594 34.0104 70.931 34.6029 71.0742 35.0195C 71.2174 35.4362 71.3867 35.7487 71.582 35.957C 71.7904 36.1523 72.0117 36.2695 72.2461 36.3086C 72.4805 36.3477 72.6888 36.3672 72.8711 36.3672C 73.1706 36.3672 73.4831 36.2956 73.8086 36.1523C 74.1471 35.9961 74.4661 35.7747 74.7656 35.4883C 75.0781 35.1888 75.3581 34.8177 75.6055 34.375C 75.8659 33.9323 76.0612 33.418 76.1914 32.832L 78.1055 23.8086ZM 108.926 32.832C 108.366 34.5117 107.747 35.8464 107.07 36.8359C 106.406 37.8125 105.742 38.5547 105.078 39.0625C 104.414 39.5573 103.77 39.8763 103.145 40.0195C 102.533 40.1628 102.005 40.2344 101.562 40.2344C 99.8958 40.2344 98.6393 39.8438 97.793 39.0625C 96.9466 38.2682 96.5234 37.1419 96.5234 35.6836C 96.5234 35.0586 96.6016 34.362 96.7578 33.5938L 97.0898 32.0312C 97.1549 31.7708 97.194 31.5169 97.207 31.2695C 97.2331 31.0221 97.2461 30.7878 97.2461 30.5664C 97.2461 29.9805 97.1419 29.5117 96.9336 29.1602C 96.7253 28.8086 96.3477 28.6328 95.8008 28.6328C 95.3451 28.6328 94.8763 28.7695 94.3945 29.043C 93.9258 29.3034 93.4115 29.6615 92.8516 30.1172L 90.7617 40L 85 40L 90.8008 12.793L 96.7188 11.9922L 93.7305 26.0742L 101.445 20L 105.41 20L 97.4023 25.5664C 97.8451 25.4492 98.2878 25.3906 98.7305 25.3906C 99.4727 25.3906 100.117 25.5143 100.664 25.7617C 101.224 26.0091 101.686 26.3477 102.051 26.7773C 102.415 27.207 102.682 27.7083 102.852 28.2812C 103.034 28.8411 103.125 29.4401 103.125 30.0781C 103.125 30.3255 103.112 30.5794 103.086 30.8398C 103.073 31.0872 103.034 31.3411 102.969 31.6016L 102.52 33.5938C 102.454 33.8151 102.402 34.0299 102.363 34.2383C 102.337 34.4466 102.324 34.6615 102.324 34.8828C 102.324 35.2865 102.428 35.638 102.637 35.9375C 102.845 36.224 103.262 36.3672 103.887 36.3672C 104.316 36.3672 104.694 36.2826 105.02 36.1133C 105.345 35.944 105.638 35.7031 105.898 35.3906C 106.159 35.0781 106.393 34.707 106.602 34.2773C 106.823 33.8346 107.038 33.3529 107.246 32.832L 108.926 32.832ZM 123.984 32.832C 123.424 33.7695 122.78 34.681 122.051 35.5664C 121.335 36.4518 120.521 37.2396 119.609 37.9297C 118.711 38.6198 117.708 39.1797 116.602 39.6094C 115.508 40.026 114.303 40.2344 112.988 40.2344C 112.038 40.2344 111.178 40.1172 110.41 39.8828C 109.642 39.6354 108.984 39.2578 108.438 38.75C 107.891 38.2422 107.474 37.5911 107.188 36.7969C 106.888 35.9896 106.738 35.0195 106.738 33.8867C 106.738 33.1185 106.816 32.2331 106.973 31.2305C 107.129 30.2279 107.376 29.1992 107.715 28.1445C 108.053 27.0898 108.503 26.0547 109.062 25.0391C 109.622 24.0234 110.299 23.1185 111.094 22.3242C 111.888 21.5169 112.819 20.8724 113.887 20.3906C 114.954 19.8958 116.172 19.6484 117.539 19.6484C 118.438 19.6484 119.167 19.7591 119.727 19.9805C 120.299 20.1888 120.749 20.4688 121.074 20.8203C 121.413 21.1719 121.641 21.582 121.758 22.0508C 121.888 22.5065 121.953 22.9818 121.953 23.4766C 121.953 24.6354 121.699 25.7161 121.191 26.7188C 120.684 27.7083 120 28.5742 119.141 29.3164C 118.294 30.0586 117.318 30.6576 116.211 31.1133C 115.104 31.569 113.952 31.8359 112.754 31.9141C 112.728 32.2135 112.702 32.5 112.676 32.7734C 112.663 33.0339 112.656 33.2812 112.656 33.5156C 112.656 34.1927 112.715 34.7526 112.832 35.1953C 112.962 35.625 113.145 35.9635 113.379 36.2109C 113.626 36.4583 113.926 36.6341 114.277 36.7383C 114.642 36.8294 115.065 36.875 115.547 36.875C 116.341 36.875 117.057 36.7708 117.695 36.5625C 118.346 36.3542 118.952 36.0677 119.512 35.7031C 120.072 35.3385 120.599 34.9089 121.094 34.4141C 121.602 33.9193 122.109 33.3919 122.617 32.832L 123.984 32.832ZM 113.066 30C 113.822 29.9479 114.551 29.7331 115.254 29.3555C 115.957 28.9779 116.576 28.4896 117.109 27.8906C 117.643 27.2786 118.066 26.5885 118.379 25.8203C 118.704 25.0391 118.867 24.2318 118.867 23.3984C 118.867 22.9036 118.796 22.5065 118.652 22.207C 118.509 21.9076 118.249 21.7578 117.871 21.7578C 117.363 21.7578 116.862 22.0052 116.367 22.5C 115.885 22.9818 115.43 23.6133 115 24.3945C 114.57 25.1758 114.186 26.0612 113.848 27.0508C 113.522 28.0273 113.262 29.0104 113.066 30ZM 131.66 40L 141.816 22.2852L 138.105 22.2852C 138.132 22.3503 138.145 22.4284 138.145 22.5195C 138.145 22.6107 138.145 22.7279 138.145 22.8711C 138.145 23.3008 138.079 23.7044 137.949 24.082C 137.819 24.4466 137.63 24.7656 137.383 25.0391C 137.148 25.3125 136.849 25.5273 136.484 25.6836C 136.133 25.8398 135.736 25.918 135.293 25.918C 134.915 25.918 134.622 25.8529 134.414 25.7227C 134.219 25.5924 134.069 25.4297 133.965 25.2344C 133.861 25.0391 133.783 24.8307 133.73 24.6094C 133.691 24.375 133.646 24.1602 133.594 23.9648C 133.542 23.7695 133.47 23.6068 133.379 23.4766C 133.301 23.3464 133.164 23.2812 132.969 23.2812C 132.357 23.2812 131.842 23.4245 131.426 23.7109C 131.009 23.9844 130.553 24.349 130.059 24.8047L 126.855 40L 121.094 40L 125.332 20L 131.094 20L 130.586 22.4805C 130.938 22.168 131.296 21.862 131.66 21.5625C 132.025 21.263 132.402 21.0026 132.793 20.7812C 133.197 20.5469 133.613 20.3581 134.043 20.2148C 134.473 20.0716 134.928 20 135.41 20L 148.77 20L 138.984 36.9141C 139.349 36.9141 139.688 36.9401 140 36.9922C 140.326 37.0443 140.632 37.1029 140.918 37.168C 141.204 37.2201 141.484 37.2721 141.758 37.3242C 142.044 37.3763 142.331 37.4023 142.617 37.4023C 142.943 37.4023 143.216 37.3307 143.438 37.1875C 143.659 37.0443 143.815 36.7708 143.906 36.3672C 143.646 36.3411 143.451 36.25 143.32 36.0938C 143.203 35.9375 143.145 35.7487 143.145 35.5273C 143.145 35.332 143.19 35.1367 143.281 34.9414C 143.385 34.7331 143.529 34.5508 143.711 34.3945C 143.893 34.2253 144.121 34.0885 144.395 33.9844C 144.681 33.8672 145.007 33.8086 145.371 33.8086C 145.996 33.8086 146.445 33.9909 146.719 34.3555C 146.992 34.7201 147.129 35.1758 147.129 35.7227C 147.129 36.1784 147.018 36.6602 146.797 37.168C 146.576 37.6758 146.257 38.138 145.84 38.5547C 145.423 38.9714 144.915 39.3164 144.316 39.5898C 143.717 39.8633 143.034 40 142.266 40L 131.66 40Z"/>
</defs>
</svg>
